<svg xmlns="http://www.w3.org/2000/svg" viewBox="0 0 1180 530" width="1180" height="530" font-family="system-ui, -apple-system, 'Segoe UI', Roboto, sans-serif" role="img" aria-label="Ryu architecture: surfaces to Gateway to Core to any engine">
  <path d="M148 120 L262 265" stroke="#36343c" stroke-width="2" stroke-linecap="round" stroke-dasharray="0.1 7" fill="none" />
  <path d="M148 175 L262 265" stroke="#36343c" stroke-width="2" stroke-linecap="round" stroke-dasharray="0.1 7" fill="none" />
  <path d="M148 230 L262 265" stroke="#36343c" stroke-width="2" stroke-linecap="round" stroke-dasharray="0.1 7" fill="none" />
  <path d="M148 285 L262 265" stroke="#36343c" stroke-width="2" stroke-linecap="round" stroke-dasharray="0.1 7" fill="none" />
  <path d="M148 340 L262 265" stroke="#36343c" stroke-width="2" stroke-linecap="round" stroke-dasharray="0.1 7" fill="none" />
  <path d="M148 395 L262 265" stroke="#36343c" stroke-width="2" stroke-linecap="round" stroke-dasharray="0.1 7" fill="none" />
  <path d="M554 265 L626 265" stroke="#36343c" stroke-width="2" stroke-linecap="round" stroke-dasharray="0.1 7" fill="none" />
  <path d="M918 265 L964 120" stroke="#36343c" stroke-width="2" stroke-linecap="round" stroke-dasharray="0.1 7" fill="none" />
  <path d="M918 265 L964 175" stroke="#36343c" stroke-width="2" stroke-linecap="round" stroke-dasharray="0.1 7" fill="none" />
  <path d="M918 265 L964 230" stroke="#36343c" stroke-width="2" stroke-linecap="round" stroke-dasharray="0.1 7" fill="none" />
  <path d="M918 265 L964 285" stroke="#36343c" stroke-width="2" stroke-linecap="round" stroke-dasharray="0.1 7" fill="none" />
  <path d="M918 265 L964 340" stroke="#36343c" stroke-width="2" stroke-linecap="round" stroke-dasharray="0.1 7" fill="none" />
  <path d="M918 265 L964 395" stroke="#36343c" stroke-width="2" stroke-linecap="round" stroke-dasharray="0.1 7" fill="none" />
  <text x="34" y="84" font-family="system-ui, -apple-system, 'Segoe UI', Roboto, sans-serif" font-size="11" font-weight="700" fill="#9c98a3" letter-spacing="1.4" text-anchor="start">SURFACES</text>
  <text x="1146" y="84" font-family="system-ui, -apple-system, 'Segoe UI', Roboto, sans-serif" font-size="11" font-weight="700" fill="#9c98a3" letter-spacing="1.4" text-anchor="end">ANY ENGINE</text>
  <g transform="translate(32 110) scale(0.8333333333333334)" fill="none" stroke="#f3f2f5" stroke-width="1.7" stroke-linecap="round" stroke-linejoin="round">
    <rect x="3" y="4" width="18" height="12" rx="1.6" />
    <path d="M9 20h6M12 16v4" />
  </g>
  <text x="62" y="124.5" font-family="system-ui, -apple-system, 'Segoe UI', Roboto, sans-serif" font-size="14" font-weight="600" fill="#f3f2f5" text-anchor="start">Desktop</text>
  <g transform="translate(32 165) scale(0.8333333333333334)" fill="none" stroke="#f3f2f5" stroke-width="1.7" stroke-linecap="round" stroke-linejoin="round">
    <rect x="7" y="3" width="10" height="18" rx="2" />
    <path d="M11 18h2" />
  </g>
  <text x="62" y="179.5" font-family="system-ui, -apple-system, 'Segoe UI', Roboto, sans-serif" font-size="14" font-weight="600" fill="#f3f2f5" text-anchor="start">Mobile</text>
  <g transform="translate(32 220) scale(0.8333333333333334)" fill="none" stroke="#f3f2f5" stroke-width="1.7" stroke-linecap="round" stroke-linejoin="round">
    <rect x="3" y="4" width="18" height="16" rx="2" />
    <path d="M7 9l3 3l-3 3M13 15h4" />
  </g>
  <text x="62" y="234.5" font-family="system-ui, -apple-system, 'Segoe UI', Roboto, sans-serif" font-size="14" font-weight="600" fill="#f3f2f5" text-anchor="start">CLI</text>
  <g transform="translate(32 275) scale(0.8333333333333334)" fill="none" stroke="#f3f2f5" stroke-width="1.7" stroke-linecap="round" stroke-linejoin="round">
    <path d="M9 4a1.6 1.6 0 0 1 3.2 0V6h3v3h1.8a1.6 1.6 0 0 1 0 3.2H15v4H4V12H2.2a1.6 1.6 0 0 1 0-3.2H4V6h5z" />
  </g>
  <text x="62" y="289.5" font-family="system-ui, -apple-system, 'Segoe UI', Roboto, sans-serif" font-size="14" font-weight="600" fill="#f3f2f5" text-anchor="start">Extension</text>
  <g transform="translate(32 330) scale(0.8333333333333334)" fill="none" stroke="#f3f2f5" stroke-width="1.7" stroke-linecap="round" stroke-linejoin="round">
    <rect x="4" y="6" width="16" height="11" rx="3" />
    <path d="M9 17l-1 3l4-3M9 11h.01M15 11h.01" />
  </g>
  <text x="62" y="344.5" font-family="system-ui, -apple-system, 'Segoe UI', Roboto, sans-serif" font-size="14" font-weight="600" fill="#f3f2f5" text-anchor="start">Bots</text>
  <g transform="translate(32 385) scale(0.8333333333333334)" fill="none" stroke="#f3f2f5" stroke-width="1.7" stroke-linecap="round" stroke-linejoin="round">
    <circle cx="12" cy="12" r="8.5" />
    <path d="M3.5 12h17M12 3.5c2.4 2.3 3.6 5.3 3.6 8.5s-1.2 6.2-3.6 8.5c-2.4-2.3-3.6-5.3-3.6-8.5S9.6 5.8 12 3.5z" />
  </g>
  <text x="62" y="399.5" font-family="system-ui, -apple-system, 'Segoe UI', Roboto, sans-serif" font-size="14" font-weight="600" fill="#f3f2f5" text-anchor="start">Web</text>
  <g transform="translate(1128 110) scale(0.8333333333333334)" fill="none" stroke="#f3f2f5" stroke-width="1.7" stroke-linecap="round" stroke-linejoin="round">
    <rect x="6" y="6" width="12" height="12" rx="2" />
    <path d="M9.5 10.5h5v5h-5zM12 2.5v3M12 18.5v3M2.5 12h3M18.5 12h3M5.5 12V8.5M5.5 12v3.5" />
  </g>
  <text x="1118" y="124.5" font-family="system-ui, -apple-system, 'Segoe UI', Roboto, sans-serif" font-size="14" font-weight="600" fill="#f3f2f5" text-anchor="end">OpenAI</text>
  <g transform="translate(1128 165) scale(0.8333333333333334)" fill="none" stroke="#f3f2f5" stroke-width="1.7" stroke-linecap="round" stroke-linejoin="round">
    <rect x="6" y="6" width="12" height="12" rx="2" />
    <path d="M9.5 10.5h5v5h-5zM12 2.5v3M12 18.5v3M2.5 12h3M18.5 12h3M5.5 12V8.5M5.5 12v3.5" />
  </g>
  <text x="1118" y="179.5" font-family="system-ui, -apple-system, 'Segoe UI', Roboto, sans-serif" font-size="14" font-weight="600" fill="#f3f2f5" text-anchor="end">Claude Code</text>
  <g transform="translate(1128 220) scale(0.8333333333333334)" fill="none" stroke="#f3f2f5" stroke-width="1.7" stroke-linecap="round" stroke-linejoin="round">
    <rect x="6" y="6" width="12" height="12" rx="2" />
    <path d="M9.5 10.5h5v5h-5zM12 2.5v3M12 18.5v3M2.5 12h3M18.5 12h3M5.5 12V8.5M5.5 12v3.5" />
  </g>
  <text x="1118" y="234.5" font-family="system-ui, -apple-system, 'Segoe UI', Roboto, sans-serif" font-size="14" font-weight="600" fill="#f3f2f5" text-anchor="end">Pi</text>
  <g transform="translate(1128 275) scale(0.8333333333333334)" fill="none" stroke="#f3f2f5" stroke-width="1.7" stroke-linecap="round" stroke-linejoin="round">
    <rect x="6" y="6" width="12" height="12" rx="2" />
    <path d="M9.5 10.5h5v5h-5zM12 2.5v3M12 18.5v3M2.5 12h3M18.5 12h3M5.5 12V8.5M5.5 12v3.5" />
  </g>
  <text x="1118" y="289.5" font-family="system-ui, -apple-system, 'Segoe UI', Roboto, sans-serif" font-size="14" font-weight="600" fill="#f3f2f5" text-anchor="end">OpenClaw</text>
  <g transform="translate(1128 330) scale(0.8333333333333334)" fill="none" stroke="#f3f2f5" stroke-width="1.7" stroke-linecap="round" stroke-linejoin="round">
    <rect x="6" y="6" width="12" height="12" rx="2" />
    <path d="M9.5 10.5h5v5h-5zM12 2.5v3M12 18.5v3M2.5 12h3M18.5 12h3M5.5 12V8.5M5.5 12v3.5" />
  </g>
  <text x="1118" y="344.5" font-family="system-ui, -apple-system, 'Segoe UI', Roboto, sans-serif" font-size="14" font-weight="600" fill="#f3f2f5" text-anchor="end">Hermes</text>
  <g transform="translate(1128 385) scale(0.8333333333333334)" fill="none" stroke="#f3f2f5" stroke-width="1.7" stroke-linecap="round" stroke-linejoin="round">
    <rect x="6" y="6" width="12" height="12" rx="2" />
    <path d="M9.5 10.5h5v5h-5zM12 2.5v3M12 18.5v3M2.5 12h3M18.5 12h3M5.5 12V8.5M5.5 12v3.5" />
  </g>
  <text x="1118" y="399.5" font-family="system-ui, -apple-system, 'Segoe UI', Roboto, sans-serif" font-size="14" font-weight="600" fill="#f3f2f5" text-anchor="end">llama.cpp</text>
  <rect x="268" y="104" width="286" height="322" rx="18" fill="#f3f2f5" stroke="none" stroke-width="0" />
  <g transform="translate(293 135) scale(1.0833333333333333)" fill="none" stroke="#17161b" stroke-width="1.7" stroke-linecap="round" stroke-linejoin="round">
    <path d="M12 3l7 2.6v5.2c0 4.6-3 7.8-7 9.2c-4-1.4-7-4.6-7-9.2V5.6z" />
    <path d="M9 12l2 2l4-4" />
  </g>
  <text x="328" y="139" font-family="system-ui, -apple-system, 'Segoe UI', Roboto, sans-serif" font-size="10.5" font-weight="700" fill="#57545e" letter-spacing="1.4" text-anchor="start">CONTROL</text>
  <text x="328" y="158" font-family="system-ui, -apple-system, 'Segoe UI', Roboto, sans-serif" font-size="21" font-weight="700" fill="#17161b" text-anchor="start">Ryu Gateway</text>
  <rect x="456" y="126" width="78" height="24" rx="12" fill="none" stroke="#6f6c78" stroke-width="1.2" />
  <text x="495" y="142" font-family="system-ui, -apple-system, 'Segoe UI', Roboto, sans-serif" font-size="11" font-weight="600" fill="#6f6c78" text-anchor="middle">the moat</text>
  <text x="292" y="194" font-family="system-ui, -apple-system, 'Segoe UI', Roboto, sans-serif" font-size="12.5" font-weight="500" fill="#57545e" text-anchor="start">decides what's allowed, shared, measured &amp; paid for</text>
  <rect x="290" y="246" width="115" height="36" rx="9" fill="#17161b" />
  <text x="347.5" y="268.5" font-family="system-ui, -apple-system, 'Segoe UI', Roboto, sans-serif" font-size="13.5" font-weight="600" fill="#f3f2f5" text-anchor="middle">Routing</text>
  <rect x="417" y="246" width="115" height="36" rx="9" fill="#17161b" />
  <text x="474.5" y="268.5" font-family="system-ui, -apple-system, 'Segoe UI', Roboto, sans-serif" font-size="13.5" font-weight="600" fill="#f3f2f5" text-anchor="middle">Firewall</text>
  <rect x="290" y="296" width="115" height="36" rx="9" fill="#17161b" />
  <text x="347.5" y="318.5" font-family="system-ui, -apple-system, 'Segoe UI', Roboto, sans-serif" font-size="13.5" font-weight="600" fill="#f3f2f5" text-anchor="middle">PII / DLP</text>
  <rect x="417" y="296" width="115" height="36" rx="9" fill="#17161b" />
  <text x="474.5" y="318.5" font-family="system-ui, -apple-system, 'Segoe UI', Roboto, sans-serif" font-size="13.5" font-weight="600" fill="#f3f2f5" text-anchor="middle">Budgets</text>
  <rect x="290" y="346" width="115" height="36" rx="9" fill="#17161b" />
  <text x="347.5" y="368.5" font-family="system-ui, -apple-system, 'Segoe UI', Roboto, sans-serif" font-size="13.5" font-weight="600" fill="#f3f2f5" text-anchor="middle">Evals</text>
  <rect x="417" y="346" width="115" height="36" rx="9" fill="#17161b" />
  <text x="474.5" y="368.5" font-family="system-ui, -apple-system, 'Segoe UI', Roboto, sans-serif" font-size="13.5" font-weight="600" fill="#f3f2f5" text-anchor="middle">Audit</text>
  <rect x="626" y="104" width="286" height="322" rx="18" fill="#1b1a20" stroke="#35333d" stroke-width="1.6" />
  <g transform="translate(651 135) scale(1.0833333333333333)" fill="none" stroke="#f3f2f5" stroke-width="1.7" stroke-linecap="round" stroke-linejoin="round">
    <circle cx="12" cy="12" r="2.6" />
    <circle cx="12" cy="4.2" r="1.8" />
    <circle cx="5.2" cy="17" r="1.8" />
    <circle cx="18.8" cy="17" r="1.8" />
    <path d="M12 6v3.4M10 13.6l-3.4 2M14 13.6l3.4 2" />
  </g>
  <text x="686" y="139" font-family="system-ui, -apple-system, 'Segoe UI', Roboto, sans-serif" font-size="10.5" font-weight="700" fill="#9c98a3" letter-spacing="1.4" text-anchor="start">ORCHESTRATION</text>
  <text x="686" y="158" font-family="system-ui, -apple-system, 'Segoe UI', Roboto, sans-serif" font-size="21" font-weight="700" fill="#f3f2f5" text-anchor="start">Ryu Core</text>
  <text x="650" y="194" font-family="system-ui, -apple-system, 'Segoe UI', Roboto, sans-serif" font-size="12.5" font-weight="500" fill="#9c98a3" text-anchor="start">decides what runs, then calls the Gateway</text>
  <rect x="648" y="246" width="115" height="36" rx="9" fill="#27262e" />
  <text x="705.5" y="268.5" font-family="system-ui, -apple-system, 'Segoe UI', Roboto, sans-serif" font-size="13.5" font-weight="600" fill="#cdcbd4" text-anchor="middle">Sessions</text>
  <rect x="775" y="246" width="115" height="36" rx="9" fill="#27262e" />
  <text x="832.5" y="268.5" font-family="system-ui, -apple-system, 'Segoe UI', Roboto, sans-serif" font-size="13.5" font-weight="600" fill="#cdcbd4" text-anchor="middle">Memory</text>
  <rect x="648" y="296" width="115" height="36" rx="9" fill="#27262e" />
  <text x="705.5" y="318.5" font-family="system-ui, -apple-system, 'Segoe UI', Roboto, sans-serif" font-size="13.5" font-weight="600" fill="#cdcbd4" text-anchor="middle">Tools</text>
  <rect x="775" y="296" width="115" height="36" rx="9" fill="#27262e" />
  <text x="832.5" y="318.5" font-family="system-ui, -apple-system, 'Segoe UI', Roboto, sans-serif" font-size="13.5" font-weight="600" fill="#cdcbd4" text-anchor="middle">Workflows</text>
  <rect x="648" y="346" width="115" height="36" rx="9" fill="#27262e" />
  <text x="705.5" y="368.5" font-family="system-ui, -apple-system, 'Segoe UI', Roboto, sans-serif" font-size="13.5" font-weight="600" fill="#cdcbd4" text-anchor="middle">Sub-agents</text>
  <rect x="775" y="346" width="115" height="36" rx="9" fill="#27262e" />
  <text x="832.5" y="368.5" font-family="system-ui, -apple-system, 'Segoe UI', Roboto, sans-serif" font-size="13.5" font-weight="600" fill="#cdcbd4" text-anchor="middle">Sidecars</text>
  <text x="590" y="514" font-family="system-ui, -apple-system, 'Segoe UI', Roboto, sans-serif" font-size="13" font-weight="500" fill="#9c98a3" text-anchor="middle">A request flows from any surface → Gateway → Core → engine, and back. One layer owns every concern.</text>
</svg>
